# xmcd
#
# Track frame offsets:
#	150
#	10756
#	35667
#	48379
#	62408
#	79045
#	92260
#	110429
#	121883
#	135944
#	147103
#	165187
#	181830
#
# Disc length: 2596 seconds
# Revision: 0
# Processed by: cddbd v1.5.2PL0 Copyright (c) Steve Scherf et al.
# Submitted via: dBpowerAMP V12.0
#
DISCID=900a220d
DTITLE=Don Rigsby - A Vision
DYEAR=1998
DGENRE=Country
TTITLE0=Wings of Angels
TTITLE1=Little Spirit Man
TTITLE2=Rose Among the Thorns
TTITLE3=I've Just Seen the Rock of Ages
TTITLE4=Over in the Gloryland
TTITLE5=Angel of Death
TTITLE6=Higher Than I
TTITLE7=That Home Far Away
TTITLE8=On a High, High Mountain
TTITLE9=God Needed My Mother
TTITLE10=Drifting Too Far from the Shore
TTITLE11=It Is Jesus
TTITLE12=Vision of a Golden Crown
EXTD=
EXTT0=
EXTT1=
EXTT2=
EXTT3=
EXTT4=
EXTT5=
EXTT6=
EXTT7=
EXTT8=
EXTT9=
EXTT10=
EXTT11=
EXTT12=
PLAYORDER=
